<svg width="154" height="144" viewBox="0 0 154 144" fill="none" xmlns="http://www.w3.org/2000/svg">
<path opacity="0.3" d="M76.6432 94.7055C100.661 94.7055 121.17 99.5504 121.17 118.938C121.17 138.318 100.793 143.339 76.6432 143.339C52.6249 143.339 32.1166 138.494 32.1166 119.114C32.1166 99.7269 52.4933 94.7055 76.6432 94.7055ZM115.046 83.0312C124.228 82.8147 134.1 84.4189 137.748 85.558C145.476 87.4911 150.559 91.4376 152.665 97.1729C154.445 101.881 154.445 107.344 152.665 112.044C149.443 120.94 139.058 123.796 135.021 124.534C134.187 124.694 133.517 123.772 133.605 122.705C135.667 98.0552 119.264 86.3681 115.02 83.681C114.839 83.5607 114.801 83.3762 114.82 83.2639C114.832 83.1836 114.908 83.0553 115.046 83.0312ZM38.9592 83.0345C39.0971 83.0585 39.166 83.1869 39.1786 83.259C39.1974 83.3794 39.1598 83.5558 38.9843 83.6842C34.7347 86.3713 18.3318 98.0584 20.3939 122.7C20.4817 123.775 19.8173 124.689 18.9837 124.537C14.9472 123.799 4.56141 120.943 1.33975 112.048C-0.446582 107.339 -0.446582 101.885 1.33975 97.1761C3.44573 91.4408 8.52267 87.4943 16.2509 85.5532C19.905 84.4221 29.7706 82.8179 38.9592 83.0345ZM76.6432 0.833344C92.9959 0.833344 106.108 17.5979 106.108 38.5336C106.108 59.4613 92.9959 76.242 76.6432 76.242C60.2905 76.242 47.1782 59.4613 47.1782 38.5336C47.1782 17.5979 60.2905 0.833344 76.6432 0.833344ZM116.644 7.12047C132.439 7.12047 144.843 26.1391 140.618 47.3234C137.766 61.5854 127.443 71.0586 115.942 70.6736C114.789 70.6335 113.654 70.4971 112.557 70.2565C111.761 70.08 111.36 68.9329 111.811 68.0827C116.199 59.8207 118.7 49.8822 118.7 39.2139C118.7 28.0802 115.967 17.7006 111.222 9.18998C111.072 8.92527 110.959 8.51618 111.109 8.21137C111.235 7.96271 111.467 7.83437 111.686 7.7702C113.284 7.35309 114.926 7.12047 116.644 7.12047ZM37.3515 7.11967C39.0689 7.11967 40.7111 7.35229 42.3156 7.7694C42.5287 7.83357 42.7669 7.96993 42.8923 8.21057C43.0364 8.51538 42.9299 8.92447 42.7794 9.18918C38.0347 17.6998 35.3019 28.0794 35.3019 39.2131C35.3019 49.8814 37.8028 59.8199 42.1903 68.0819C42.6415 68.9321 42.2404 70.0792 41.4444 70.2557C40.3413 70.5043 39.213 70.6327 38.0598 70.6728C26.5583 71.0578 16.2352 61.5846 13.3834 47.3226C9.15258 26.1383 21.5566 7.11967 37.3515 7.11967Z" fill="#F4F4F4"/>
</svg>
