<svg width="50" height="50" viewBox="0 0 50 50" fill="none" xmlns="http://www.w3.org/2000/svg">
<circle cx="25" cy="25" r="25" fill="#EEC9CC"/>
<path d="M31.5625 17.5H28.125V16.875C28.125 15.8411 27.2839 15 26.25 15H23.75C22.7161 15 21.875 15.8411 21.875 16.875V17.5H18.4375C17.5759 17.5 16.875 18.2009 16.875 19.0625V21.25C16.875 21.5952 17.1548 21.875 17.5 21.875H17.8416L18.3815 33.2142C18.4292 34.2156 19.2519 35 20.2544 35H29.7456C30.7482 35 31.5708 34.2156 31.6185 33.2142L32.1584 21.875H32.5C32.8452 21.875 33.125 21.5952 33.125 21.25V19.0625C33.125 18.2009 32.4241 17.5 31.5625 17.5ZM23.125 16.875C23.125 16.5304 23.4054 16.25 23.75 16.25H26.25C26.5946 16.25 26.875 16.5304 26.875 16.875V17.5H23.125V16.875ZM18.125 19.0625C18.125 18.8902 18.2652 18.75 18.4375 18.75H31.5625C31.7348 18.75 31.875 18.8902 31.875 19.0625V20.625C31.6824 20.625 18.9232 20.625 18.125 20.625V19.0625ZM30.3699 33.1547C30.354 33.4885 30.0798 33.75 29.7456 33.75H20.2544C19.9202 33.75 19.646 33.4885 19.6301 33.1547L19.093 21.875H30.907L30.3699 33.1547Z" fill="#DC1919"/>
<path d="M18 18.5L19.5 18H31C31.8 18 32.3333 18.3333 32.5 18.5V20.5C32.5 20.9 31.8333 21.6667 31.5 22V24.5L31 33L30.5 34.5H29.5H24.5H20L19 33L18.5 28L19 24L18 21L17.5 20.5L18 18.5Z" fill="#DC1919"/>
<path d="M25 32.5C25.3452 32.5 25.625 32.2202 25.625 31.875V23.75C25.625 23.4048 25.3452 23.125 25 23.125C24.6548 23.125 24.375 23.4048 24.375 23.75V31.875C24.375 32.2202 24.6548 32.5 25 32.5Z" fill="#F4F4F4"/>
<path d="M28.125 32.5C28.4702 32.5 28.75 32.2202 28.75 31.875V23.75C28.75 23.4048 28.4702 23.125 28.125 23.125C27.7798 23.125 27.5 23.4048 27.5 23.75V31.875C27.5 32.2202 27.7798 32.5 28.125 32.5Z" fill="#F4F4F4"/>
<path d="M21.875 32.5C22.2202 32.5 22.5 32.2202 22.5 31.875V23.75C22.5 23.4048 22.2202 23.125 21.875 23.125C21.5298 23.125 21.25 23.4048 21.25 23.75V31.875C21.25 32.2202 21.5298 32.5 21.875 32.5Z" fill="#F4F4F4"/>
</svg>
