<svg width="50" height="50" viewBox="0 0 50 50" fill="none" xmlns="http://www.w3.org/2000/svg">
<circle opacity="0.2" cx="25" cy="25" r="25" fill="#37AC83"/>
<path d="M33.8775 32.7258C34.4965 32.7258 35 33.2359 35 33.8629C35 34.4912 34.4965 35 33.8775 35H27.533C26.914 35 26.4105 34.4912 26.4105 33.8629C26.4105 33.2359 26.914 32.7258 27.533 32.7258H33.8775ZM29.4776 15.7767L31.1165 17.0786C31.7886 17.6042 32.2366 18.297 32.3899 19.0255C32.5668 19.827 32.3781 20.6141 31.8475 21.2949L22.0849 33.9199C21.6368 34.4932 20.9766 34.8157 20.2691 34.8276L16.3782 34.8754C16.166 34.8754 15.9891 34.7321 15.942 34.529L15.0577 30.695C14.9044 29.9903 15.0577 29.2617 15.5057 28.7003L22.4268 19.7422C22.5447 19.5989 22.757 19.5762 22.8984 19.6825L25.8107 21.9996C25.9994 22.1549 26.2588 22.2385 26.53 22.2027C27.1077 22.131 27.4968 21.6055 27.4378 21.0441C27.4025 20.7574 27.261 20.5186 27.0723 20.3394C27.0134 20.2916 24.2426 18.07 24.2426 18.07C24.0657 17.9267 24.0303 17.6639 24.1718 17.4859L25.2684 16.0634C26.2824 14.7615 28.051 14.642 29.4776 15.7767Z" fill="#37AC83"/>
</svg>
