<svg width="18" height="20" viewBox="0 0 18 20" fill="none" xmlns="http://www.w3.org/2000/svg">
<path d="M10.2525 0C10.5 0 10.7079 0.21 10.7079 0.46V3.68C10.7079 5.51 12.1931 7.01 14.0149 7.02C14.7574 7.02 15.3515 7.03 15.8069 7.03C16.1139 7.03 16.6188 7.02 17.0446 7.02C17.2921 7.02 17.5 7.22 17.5 7.47V15.51C17.5 17.99 15.5 20 13.0446 20H5.17327C2.58911 20 0.5 17.89 0.5 15.29V4.51C0.5 2.03 2.4901 0 4.96535 0H10.2525ZM8.63862 6.74C8.53961 6.74 8.4406 6.76 8.35149 6.8C8.26238 6.84 8.18317 6.89 8.11386 6.96L5.28218 9.84C4.99505 10.13 4.99505 10.6 5.28218 10.89C5.56931 11.18 6.03465 11.18 6.32178 10.89L7.89604 9.29V14.12C7.89604 14.53 8.22277 14.86 8.63862 14.86C9.04456 14.86 9.37129 14.53 9.37129 14.12V9.29L10.9455 10.89C11.2327 11.18 11.698 11.18 11.9852 10.89C12.2822 10.6 12.2822 10.13 11.9951 9.84L9.15347 6.96C9.08416 6.89 9.00495 6.84 8.91584 6.8C8.82674 6.76 8.73763 6.74 8.63862 6.74ZM12.1453 0.906C12.1453 0.475 12.6621 0.261 12.9581 0.572C14.0294 1.696 15.8997 3.661 16.9453 4.759C17.2334 5.062 17.0215 5.565 16.6047 5.566C15.7908 5.569 14.8324 5.566 14.1423 5.559C13.0472 5.559 12.1453 4.648 12.1453 3.542V0.906Z" fill="#020E23"/>
</svg>
