<?xml version="1.0" encoding="iso-8859-1"?>
<!-- Generator: Adobe Illustrator 16.0.0, SVG Export Plug-In . SVG Version: 6.00 Build 0)  -->
<!DOCTYPE svg PUBLIC "-//W3C//DTD SVG 1.1//EN" "http://www.w3.org/Graphics/SVG/1.1/DTD/svg11.dtd">
<svg viewBox="0 0 61 60" fill="none" xmlns="http://www.w3.org/2000/svg">
                    <path d="M57.5164 27.907C57.5164 41.8093 45.5577 53.314 30.5082 53.314C15.4587 53.314 3.5 41.8093 3.5 27.907C3.5 14.0047 15.4587 2.5 30.5082 2.5C45.5577 2.5 57.5164 14.0047 57.5164 27.907Z" stroke="#010065" stroke-width="5"></path>
                    <rect y="6.51163" width="5" height="53.4884" fill="#010065"></rect>
                    <path d="M18.354 15.0001C18.353 15.0001 18.352 15.0001 18.351 15.0001C18.02 15.0001 17.7087 15.1256 17.4736 15.3536C17.2359 15.5842 17.1049 15.8912 17.1049 16.218V34.4789C17.1049 35.1486 17.6674 35.6947 18.3589 35.6964C21.2742 35.7032 26.1584 36.294 29.5279 39.7225V20.6119C29.5279 20.3849 29.4682 20.1716 29.3557 19.9952C26.5902 15.6647 21.2758 15.0068 18.354 15.0001Z" fill="#010065"></path>
                    <path d="M43.8952 34.4789V16.2178C43.8952 15.891 43.7643 15.584 43.5266 15.3535C43.2915 15.1255 42.9799 15 42.6492 15C42.6482 15 42.6471 15 42.6462 15C39.7244 15.0068 34.4101 15.6647 31.6445 19.9951C31.5319 20.1716 31.4724 20.3849 31.4724 20.6118V39.7224C34.8419 36.2939 39.7261 35.703 42.6413 35.6963C43.3327 35.6946 43.8952 35.1485 43.8952 34.4789Z" fill="#010065"></path>
                    <path d="M46.7478 19.2114H45.8397V34.479C45.8397 36.1887 44.407 37.5829 42.6459 37.5871C40.1732 37.5928 36.096 38.063 33.2084 40.7203C38.2025 39.5314 43.4671 40.3043 46.4674 40.9691C46.8421 41.0521 47.2292 40.9664 47.5293 40.7338C47.8284 40.5017 48 40.1549 48 39.7826V20.429C48.0001 19.7576 47.4383 19.2114 46.7478 19.2114Z" fill="#010065"></path>
                    <path d="M15.1603 34.479V19.2114H14.2522C13.5619 19.2114 13 19.7576 13 20.429V39.7822C13 40.1546 13.1716 40.5014 13.4707 40.7334C13.7706 40.9659 14.1574 41.052 14.5326 40.9688C17.5329 40.3038 22.7977 39.5311 27.7915 40.72C24.904 38.0628 20.8268 37.5927 18.3541 37.587C16.5931 37.5829 15.1603 36.1887 15.1603 34.479Z" fill="#010065"></path>
                </svg>