<?xml version="1.0" encoding="UTF-8"?>
<svg xmlns="http://www.w3.org/2000/svg" id="snb_logo-2" width="229" height="51.643" viewBox="0 0 229 51.643">
  <g id="Group_444" data-name="Group 444" transform="translate(65.765 8.722)">
    <g id="Group_442" data-name="Group 442">
      <path id="Path_112" data-name="Path 112" d="M64.391,10.554A18.882,18.882,0,0,0,57.33,9.307c-2.215,0-5.953,0-5.953,2.215,0,3.6,14.537.277,14.537,8.03,0,4.707-4.984,5.538-9.83,5.538A33.79,33.79,0,0,1,47.5,23.845V20.661a29.31,29.31,0,0,0,8.446,1.523c3.461,0,6.369-.415,6.369-2.631,0-3.877-14.537-.415-14.537-8.03,0-4.43,5.123-5.123,9.553-5.123a21.006,21.006,0,0,1,7.2,1.246Z" transform="translate(-47.5 -6.262)" fill="#242424"></path>
      <path id="Path_113" data-name="Path 113" d="M69.946,24.245V9.707H61.5V6.8H81.852V9.846H73.407v14.4Z" transform="translate(-42.117 -6.108)" fill="#242424"></path>
      <path id="Path_114" data-name="Path 114" d="M78.4,24.245V6.8H96.122V9.846H82v4.015H93.63v2.907H82v4.569H96.122v2.907Z" transform="translate(-35.618 -6.108)" fill="#242424"></path>
      <path id="Path_115" data-name="Path 115" d="M108.461,24.245l-3.877-5.953H97.8v5.953H94.2V6.8h11.492c4.569,0,6.507,3.046,6.507,5.677a5.5,5.5,0,0,1-3.877,5.261l4.154,6.507ZM97.938,9.707v5.538H105c2.631,0,3.6-1.246,3.6-2.769,0-1.385-.969-2.769-3.6-2.769Z" transform="translate(-29.543 -6.108)" fill="#242424"></path>
      <path id="Path_116" data-name="Path 116" d="M110,24.245V6.8h3.6V21.337h13.015v2.907Z" transform="translate(-23.467 -6.108)" fill="#242424"></path>
      <path id="Path_117" data-name="Path 117" d="M124.3,24.245V6.8h3.6V24.245Z" transform="translate(-17.969 -6.108)" fill="#242424"></path>
      <path id="Path_118" data-name="Path 118" d="M133.8,12.669V24.437h-3.6V6.3l17.445,12.6V6.992h3.6V25.13Z" transform="translate(-15.7 -6.3)" fill="#242424"></path>
      <path id="Path_119" data-name="Path 119" d="M162.245,17.653V14.746H171.8c0,.415.138.831.138,1.246-.138,5.538-4.846,9.138-11.215,9.138-7.476,0-12.322-4.154-12.322-9.415,0-5.123,4.846-9.415,12.322-9.415a15.234,15.234,0,0,1,8.307,2.215v3.323a14.512,14.512,0,0,0-6.507-2.354c-4.707-.692-10.384,1.661-10.384,6.23,0,3.6,3.738,6.369,8.584,6.369,3.6,0,6.507-1.523,7.338-4.292l-5.815-.138Z" transform="translate(-8.702 -6.3)" fill="#242424"></path>
    </g>
    <g id="Group_443" data-name="Group 443" transform="translate(0.554 24.644)">
      <path id="Path_120" data-name="Path 120" d="M49.7,27.384v6.092H47.9V24.2l9,6.507V24.615h1.8v9.276Z" transform="translate(-47.9 -24.062)" fill="#242424"></path>
      <path id="Path_121" data-name="Path 121" d="M67.63,33.338l-1.246-1.8h-5.4l-1.108,1.938H57.8L63.753,24.2l5.953,9.276H67.63Zm-3.877-6.23-1.8,2.908h3.6Z" transform="translate(-44.093 -24.062)" fill="#242424"></path>
      <path id="Path_122" data-name="Path 122" d="M70.992,33.3V25.823H66.7V24.3H77.222v1.523H72.93V33.3Z" transform="translate(-40.671 -24.023)" fill="#242424"></path>
      <path id="Path_123" data-name="Path 123" d="M76.6,33.3v-9h1.8v9Z" transform="translate(-36.864 -24.023)" fill="#242424"></path>
      <path id="Path_124" data-name="Path 124" d="M87.069,33.792c-3.877,0-6.369-1.938-6.369-4.846,0-2.769,2.492-4.846,6.369-4.846,3.738,0,6.369,2.077,6.369,4.846C93.3,31.715,90.945,33.792,87.069,33.792Zm0-8.169c-2.492,0-4.43,1.246-4.43,3.323s1.938,3.323,4.43,3.323,4.43-1.246,4.43-3.323C91.361,26.869,89.561,25.623,87.069,25.623Z" transform="translate(-35.288 -24.1)" fill="#242424"></path>
      <path id="Path_125" data-name="Path 125" d="M94.4,27.384v6.092H92.6V24.2l9,6.507V24.615h1.8v9.276Z" transform="translate(-30.712 -24.062)" fill="#242424"></path>
      <path id="Path_126" data-name="Path 126" d="M112.292,33.376l-1.108-1.938h-5.4l-1.108,1.938H102.6l5.953-9.276,5.953,9.276Zm-3.877-6.23-1.8,2.908h3.6Z" transform="translate(-26.867 -24.1)" fill="#242424"></path>
      <path id="Path_127" data-name="Path 127" d="M113.3,33.3v-9h1.8v7.476h6.784V33.3Z" transform="translate(-22.752 -24.023)" fill="#242424"></path>
      <path id="Path_128" data-name="Path 128" d="M127.1,33.3v-9h5.953c2.077,0,3.323.554,3.323,2.631a1.783,1.783,0,0,1-.969,1.523,2.245,2.245,0,0,1,1.8,2.215c0,1.938-1.108,2.631-3.738,2.631Zm1.8-7.338v2.077h4.154c.831,0,1.385-.277,1.385-.969,0-.831-.554-.969-1.385-.969l-4.154-.138Zm0,3.6v2.354h4.569c1.108,0,1.8-.277,1.8-1.108s-.554-1.108-1.8-1.108H128.9Z" transform="translate(-17.446 -24.023)" fill="#242424"></path>
      <path id="Path_129" data-name="Path 129" d="M145.892,33.376l-1.108-1.938h-5.4l-1.108,1.938H136.2l5.953-9.276,5.953,9.276Zm-3.877-6.23-1.8,2.908h3.6Z" transform="translate(-13.947 -24.1)" fill="#242424"></path>
      <path id="Path_130" data-name="Path 130" d="M148.7,27.384v6.092h-1.8V24.2l9,6.507V24.615h1.8v9.276Z" transform="translate(-9.832 -24.062)" fill="#242424"></path>
      <path id="Path_131" data-name="Path 131" d="M163.377,27.9l4.43,5.4h-2.215l-3.6-4.292L159.5,31.084V33.3h-1.8v-9h1.8v4.846l5.815-4.846h2.354Z" transform="translate(-5.679 -24.023)" fill="#242424"></path>
    </g>
  </g>
  <g id="Group_445" data-name="Group 445">
    <path id="Path_132" data-name="Path 132" d="M27.137,42.089c.831-4.43-.415-9.138-3.738-13.984L22.568,27c-4.292-6.23-5.953-12.461-4.707-18.691a24.9,24.9,0,0,1,.831-3.046L0,0V51.227H22.152A19.924,19.924,0,0,0,27.137,42.089Z" fill="#41207c"></path>
    <path id="Path_133" data-name="Path 133" d="M22.353.4a18.261,18.261,0,0,0-4.984,9c-.831,4.43.415,9.138,3.738,13.984l.831,1.108c4.292,6.23,5.953,12.6,4.707,18.691a24.9,24.9,0,0,1-.831,3.046l18.691,5.261V.4Z" transform="translate(6.583 0.154)" fill="#41207c"></path>
  </g>
</svg>
