<svg width="21" height="25" viewBox="0 0 21 25" fill="none" xmlns="http://www.w3.org/2000/svg">
<path d="M11.108 22.6906C11.4045 22.9321 11.4515 23.3713 11.2129 23.6715C11.0366 23.8935 10.8327 24.0922 10.6167 24.255C9.8891 24.826 8.96401 25.0849 8.0453 24.9754C7.12578 24.8659 6.287 24.3962 5.71459 23.6689C5.4774 23.3676 5.52646 22.9286 5.82418 22.6885C6.12189 22.4484 6.55551 22.4981 6.79271 22.7995C7.13792 23.2381 7.64669 23.523 8.2064 23.5896C8.76691 23.6564 9.33075 23.4986 9.78256 23.1443C9.91578 23.0437 10.0355 22.927 10.1389 22.7969C10.3775 22.4967 10.8114 22.4491 11.108 22.6906ZM1.65213 11.9997L1.66444 11.4039C1.67324 11.1491 1.68686 10.9125 1.70685 10.681C2.00654 7.44456 5.09565 5 8.46479 5H8.53612C11.9034 5 14.9934 7.44285 15.3034 10.6854C15.3212 10.8915 15.3288 11.0746 15.3311 11.3321L15.332 12.1198C15.3327 12.1916 15.3339 12.2547 15.3358 12.3135L15.345 12.5098L15.3896 12.6969C15.5303 13.218 15.7776 13.7052 16.1162 14.1282L16.2669 14.3055L16.3286 14.3847C16.7348 14.9917 16.9668 15.698 17 16.4587L16.999 16.862C16.9707 17.763 16.6399 18.6331 16.0338 19.3582C15.2311 20.2101 14.1434 20.7393 12.9873 20.8457C10.002 21.1699 6.99 21.1699 4.01296 20.8466C2.84896 20.7346 1.76444 20.2069 0.926629 19.3223C0.308819 18.5691 -0.0195851 17.6208 0.000903941 16.6624L0.00174968 16.4242C0.0374427 15.6955 0.268036 14.9898 0.669363 14.3802L0.736534 14.2938C1.20525 13.7799 1.52569 13.151 1.66473 12.4731L1.64969 12.534L1.65213 11.9997ZM8.53612 6.39535H8.46479C5.76651 6.39535 3.30804 8.34087 3.07967 10.8068C3.06798 10.9423 3.05866 11.0821 3.05137 11.2292L3.03532 11.6956L3.02879 12.6149L3.01441 12.7567C2.82444 13.683 2.38728 14.5409 1.74929 15.2404L1.79856 15.1833L1.71045 15.3291C1.54539 15.6265 1.4389 15.9495 1.39682 16.2682L1.37935 16.4587L1.37919 16.6774C1.36568 17.3142 1.58086 17.9356 1.95369 18.3931C2.52881 18.9985 3.30682 19.377 4.15168 19.4583C7.03928 19.7719 9.9527 19.7719 12.8514 19.4572C13.6871 19.3802 14.4645 19.002 15.0084 18.4267C15.42 17.933 15.6375 17.3097 15.6216 16.6536L15.6224 16.4901C15.6013 16.0186 15.451 15.5613 15.1873 15.1672L15.2026 15.1926L15.0647 15.0309C14.5893 14.4441 14.244 13.7635 14.0517 13.034L13.9868 12.7582L13.9739 12.6655C13.9642 12.5301 13.9585 12.4098 13.9555 12.2651L13.9528 11.3605C13.9509 11.1304 13.9447 10.9756 13.9307 10.8133C13.6944 8.34075 11.2336 6.39535 8.53612 6.39535Z" fill="#200E32"/>
<circle cx="14.5" cy="6" r="5" fill="#FF0000" stroke="white" stroke-width="2"/>
</svg>
