<svg width="50" height="50" viewBox="0 0 50 50" fill="none" xmlns="http://www.w3.org/2000/svg">
<circle opacity="0.2" cx="25" cy="25" r="25" fill="#AC9237"/>
<g clip-path="url(#clip0)">
<path d="M33.9167 30H31.4167C31.1867 30 31 29.8133 31 29.5833C31 29.3533 31.1867 29.1667 31.4167 29.1667H33.9167C34.6058 29.1667 35.1667 28.6058 35.1667 27.9167V22.0833C35.1667 21.3942 34.6058 20.8333 33.9167 20.8333H18.0833C17.3942 20.8333 16.8333 21.3942 16.8333 22.0833V27.9167C16.8333 28.6058 17.3942 29.1667 18.0833 29.1667H20.5833C20.8133 29.1667 21 29.3533 21 29.5833C21 29.8133 20.8133 30 20.5833 30H18.0833C16.9342 30 16 29.065 16 27.9167V22.0833C16 20.935 16.9342 20 18.0833 20H33.9167C35.0658 20 36 20.935 36 22.0833V27.9167C36 29.065 35.0658 30 33.9167 30Z" fill="#AC9237"/>
<path d="M28.0837 32.5003H23.0837C22.8537 32.5003 22.667 32.3137 22.667 32.0837C22.667 31.8537 22.8537 31.667 23.0837 31.667H28.0837C28.3137 31.667 28.5003 31.8537 28.5003 32.0837C28.5003 32.3137 28.3137 32.5003 28.0837 32.5003Z" fill="#AC9237"/>
<path d="M28.0837 30.8333H23.0837C22.8537 30.8333 22.667 30.6467 22.667 30.4167C22.667 30.1867 22.8537 30 23.0837 30H28.0837C28.3137 30 28.5003 30.1867 28.5003 30.4167C28.5003 30.6467 28.3137 30.8333 28.0837 30.8333Z" fill="#AC9237"/>
<path d="M24.7503 29.1663H23.0837C22.8537 29.1663 22.667 28.9797 22.667 28.7497C22.667 28.5197 22.8537 28.333 23.0837 28.333H24.7503C24.9803 28.333 25.167 28.5197 25.167 28.7497C25.167 28.9797 24.9803 29.1663 24.7503 29.1663Z" fill="#AC9237"/>
<path d="M31.417 20.8333C31.187 20.8333 31.0003 20.6467 31.0003 20.4167V17.0833C31.0003 16.3942 30.4395 15.8333 29.7503 15.8333H22.2503C21.5612 15.8333 21.0003 16.3942 21.0003 17.0833V20.4167C21.0003 20.6467 20.8137 20.8333 20.5837 20.8333C20.3537 20.8333 20.167 20.6467 20.167 20.4167V17.0833C20.167 15.935 21.1012 15 22.2503 15H29.7503C30.8995 15 31.8337 15.935 31.8337 17.0833V20.4167C31.8337 20.6467 31.647 20.8333 31.417 20.8333Z" fill="#AC9237"/>
<path d="M29.7503 34.9997H22.2503C21.1012 34.9997 20.167 34.0647 20.167 32.9163V26.2497C20.167 26.0197 20.3537 25.833 20.5837 25.833H31.417C31.647 25.833 31.8337 26.0197 31.8337 26.2497V32.9163C31.8337 34.0647 30.8995 34.9997 29.7503 34.9997ZM21.0003 26.6663V32.9163C21.0003 33.6055 21.5612 34.1663 22.2503 34.1663H29.7503C30.4395 34.1663 31.0003 33.6055 31.0003 32.9163V26.6663H21.0003Z" fill="#AC9237"/>
</g>
<defs>
<clipPath id="clip0">
<rect width="20" height="20" fill="white" transform="translate(16 15)"/>
</clipPath>
</defs>
</svg>
